<?xml version="1.0" encoding="utf-8"?>
<!-- Generator: Adobe Illustrator 23.0.1, SVG Export Plug-In . SVG Version: 6.00 Build 0)  -->
<svg version="1.1" xmlns="http://www.w3.org/2000/svg" xmlns:xlink="http://www.w3.org/1999/xlink" x="0px" y="0px"
	 viewBox="0 0 1188 99" style="enable-background:new 0 0 1188 99;" xml:space="preserve">
<style type="text/css">
	.st0{display:none;}
	.st1{display:inline;fill:#DDDDDD;}
	.st2{fill:#D7518F;stroke:#F0B0E1;stroke-width:2;stroke-miterlimit:10;}
	.st3{fill:#B54C37;stroke:#FBC3E6;stroke-width:2;stroke-miterlimit:10;}
	.st4{fill:#C04D54;stroke:#F8BDE5;stroke-width:2;stroke-miterlimit:10;}
	.st5{fill:#AA4A1A;stroke:#FFCAE8;stroke-width:2;stroke-miterlimit:10;}
	.st6{fill:#ED54C9;stroke:#E9A3DE;stroke-width:2;stroke-miterlimit:10;}
	.st7{fill:#CC4F72;stroke:#F4B6E3;stroke-width:2;stroke-miterlimit:10;}
	.st8{fill:#E252AC;stroke:#EDAAE0;stroke-width:2;stroke-miterlimit:10;}
</style>
<g id="Layer_3" class="st0">
	<rect class="st1" width="99" height="99"/>
	<rect x="198" class="st1" width="99" height="99"/>
	<rect x="396" class="st1" width="99" height="99"/>
	<rect x="594" class="st1" width="99" height="99"/>
	<rect x="792" class="st1" width="99" height="99"/>
	<rect x="990" class="st1" width="99" height="99"/>
</g>
<g id="Layer_2">
	<circle class="st2" cx="247.5" cy="90.5" r="4.5"/>
	<path class="st3" d="M742,51c-1,0-2-1-2-2s1-2,3-2c1,0,2,1,2,2S744.5,51,742,51z"/>
	<path class="st4" d="M456,93.5c0-2.5-2-10.5-10.5-10.5S435,91,435,93.5s8-1.5,10.5-1.5S456,96,456,93.5z"/>
	<path class="st5" d="M660,93.5c0-7.5-8-18.5-16.5-18.5S627,86,627,93.5c0,2.5,8-1.5,16.5-1.5S660,96,660,93.5z"/>
	<path class="st4" d="M888,96c0-7.5-38-48-46.5-48S795,88.5,795,96c0,2.5,28-14,46.5-14S888,98.5,888,96z"/>
	<path class="st2" d="M1084,69c0-7.5-36-54-44.5-54S995,61.5,995,69c0,2.5,26-24,44.5-24S1084,71.5,1084,69z"/>
	<path class="st6" d="M91,65C91,40,58.5,3,50,3S8,40,8,65c0,2.5,17.5-34,41-34S91,67.5,91,65z"/>
	<path class="st2" d="M247,30c5.7,0,13-15,27-15c8,0,15,6,15,14c0,12-17,14-9,14c5,0,16-4,16-16c0-13-10-24-25-24c-14,0-14,7-23,7
		s-10-7-24-7c-15,0-26,11-26,24c0,12,12,16,17,16c8,0-9-2-9-14c0-8,7-14,15-14C235,15,241.3,30,247,30z"/>
	<path class="st4" d="M446,24c-4,0-11-4-11,1s5,15,10,15s11-10,11-15S450,24,446,24z"/>
	<path class="st4" d="M474.7,19.4c3.5,3.5,5.6,7,2.1,10.6c-4.8,5-16.3-3.5-10.6,2.1c3.5,3.5,12.1,6.8,21.5-0.7
		c4.3-3.4,8.2-14.8,0.4-22.6C479.6,0.3,466.9,11.6,474.7,19.4z"/>
	<path class="st4" d="M402.9,8.8c-7.8,7.8-6.1,18.5,0.4,22.6c8.7,5.6,18,4.2,21.5,0.7c5.7-5.7-4.7,3.3-10.6-2.1
		c-2.2-2-1.4-7.1,2.1-10.6C424.1,11.6,411.4,0.3,402.9,8.8z"/>
	<path class="st5" d="M670.7,17.3c0,3.7-1.7,6.7-4.7,6.7s-5.3-8-5.3-2.7c0,3.7,3.3,8.7,8.3,8.7c8,0,13.7-4,13.7-10.7
		C682.7,7,670.7,11,670.7,17.3z"/>
	<path class="st5" d="M604,19c0,6.7,5,11,13,11c5,0,9-5.3,9-9c0-5.3-2,3-5,3s-5-3.3-5-7C616,10.7,604,6.7,604,19z"/>
	<path class="st4" d="M871,16c-2.1,1.7-3.6,1.4-5,0c-2.1-2.1,1.8-8.8-2-5c-2.6,2.6-3.1,7.1,0,11c4,5,11.1,4.6,14,1
		C882,18,876,12,871,16z"/>
	<path class="st4" d="M805,23c2.9,3.6,10,4,14-1c3.1-3.9,2.6-8.4,0-11c-3.8-3.8,0.1,2.9-2,5c-1.4,1.4-2.9,1.7-5,0
		C807,12,801,18,805,23z"/>
	<path class="st5" d="M648,41.5c0-2.5-2-2.5-4.5-2.5s-4.5,0-4.5,2.5s2,6.5,4.5,6.5S648,44,648,41.5z"/>
	<circle class="st2" cx="1008.5" cy="15.5" r="4.5"/>
	<circle class="st2" cx="1070.5" cy="15.5" r="4.5"/>
	<path class="st7" d="M347,94c2.5,0,7,1,8-1c1.1-2.2-1.5-8-9-8s-9.1,5.8-8,8C339,95,344.5,94,347,94z"/>
	<path class="st3" d="M557,93c0-2.5-4-13-12.5-13S532,90.5,532,93s9.5-1,12-1S557,95.5,557,93z"/>
	<path class="st3" d="M770,94.5C770,87,753,67,742.5,67S715,87,715,94.5c0,2.5,19-5.5,27.5-5.5S770,97,770,94.5z"/>
	<path class="st7" d="M986,78c0-8-36-52-46-52c-9,0-45,44-45,52c0,3,27-21,46-21C961,57,986,80,986,78z"/>
	<path class="st7" d="M320,3c-11,0-20,7-20,20c0,16,18,17,23,15c7.5-3-13,2-13-10c0-4,5-7,10-7C332.2,21,334,3,320,3z"/>
	<path class="st8" d="M194,49c0-18.2-14-46-31-46c-1.9,0-7.5,2-13.2,2c-6.1,0-12.3-2-13.8-2c-15,0-33,27.2-33,46c0,2,14-27,33-27
		c3.1,0,7,3,13,3s9-4,14-4C179,21,194,51,194,49z"/>
	<path class="st7" d="M372.8,21c5,0,10,3,10,7c0,12-20.5,7-13,10c5,2,23,1,23-15c0-13-9-20-20-20C358.8,3,360.7,21,372.8,21z"/>
	<path class="st3" d="M544,36c-4,0-7-4-7,1s4,9,8,9s7-4,7-9S548,36,544,36z"/>
	<path class="st3" d="M503,14c-3,8,0.2,15.4,6,17c11,3,16.7-3.1,17.8-5.4C529,21,523,29,517,27c-2.1-0.7-2-4-1-7C520,8,506,6,503,14
		z"/>
	<path class="st3" d="M572.1,20c1,3,1.1,6.3-1,7c-6,2-12-6-9.8-1.4c1.1,2.3,6.8,8.4,17.8,5.4c5.8-1.6,9-9,6-17S568.1,8,572.1,20z"/>
	<path class="st3" d="M705,23c2,4,9,5,15,2c4.5-2.2,5-8,3-10.8c-3.1-4.4,1,2.8-3,4.8c-2.7,1.3-5,0-6-3C711.6,8.7,700.2,13.5,705,23z
		"/>
	<path class="st3" d="M771,16c-1,3-3.3,4.3-6,3c-4-2,0-9.2-3-4.8c-2,2.8-1.4,8.6,3,10.8c6,3,13,2,15-2C784.7,13.5,773.4,8.7,771,16z
		"/>
	<path class="st7" d="M915,12c0-2-3,0-7,0c-3,0-5,3-5,6c0,2.3,2,4,5,4C915,22,915,14,915,12z"/>
	<path class="st7" d="M965,12c0-2,3,0,7,0c3,0,5,3,5,6c0,2.3-2,4-5,4C965,22,965,14,965,12z"/>
	<path class="st6" d="M271,30"/>
	<path class="st7" d="M347,18c-7,0-13-4-14.6,0.5C329.7,25.9,341.6,36,346,36h0c4.4,0,17.3-10.1,14.6-17.5C359,14,354,18,347,18z"/>
	<path class="st8" d="M1106,15c-1,0-2-1-2-2s1-2,3-2c1,0,2,1,2,2S1108.5,15,1106,15z"/>
	<path class="st8" d="M1170,15c-1,0-2-1-2-2s1-2,3-2c1,0,2,1,2,2S1172.5,15,1170,15z"/>
	<path class="st8" d="M1181,66c0-7.5-29-63-42-63s-43,51-43,63c0,2.5,21-32,42.5-32S1181,68.5,1181,66z"/>
	<g>
		<rect x="17" y="-133" class="st6" width="66" height="66"/>
		<rect x="116.5" y="-133" class="st8" width="64.7" height="66"/>
		<rect x="216" y="-133" class="st2" width="63.3" height="66"/>
		<rect x="315.5" y="-133" class="st7" width="62" height="66"/>
		<rect x="415" y="-133" class="st4" width="60.7" height="66"/>
		<rect x="514.5" y="-133" class="st3" width="59.3" height="66"/>
		<rect x="614" y="-133" class="st5" width="58" height="66"/>
		<rect x="713.5" y="-133" class="st3" width="59.3" height="66"/>
		<rect x="813" y="-133" class="st4" width="60.7" height="66"/>
		<rect x="912.5" y="-133" class="st7" width="62" height="66"/>
		<rect x="1012" y="-133" class="st2" width="63.3" height="66"/>
		<rect x="1111.5" y="-133" class="st8" width="64.7" height="66"/>
		<rect x="1211" y="-133" class="st6" width="66" height="66"/>
	</g>
</g>
</svg>
