<?xml version="1.0" encoding="utf-8"?>
<!-- Generator: Adobe Illustrator 23.0.1, SVG Export Plug-In . SVG Version: 6.00 Build 0)  -->
<svg version="1.1" id="Layer_2" xmlns="http://www.w3.org/2000/svg" xmlns:xlink="http://www.w3.org/1999/xlink" x="0px" y="0px"
	 viewBox="0 0 520 925" style="enable-background:new 0 0 520 925;" xml:space="preserve">
<style type="text/css">
	.st0{fill:#1D172C;stroke:#3D275B;stroke-miterlimit:10;}
	.st1{fill:#231938;stroke:#3D275B;stroke-miterlimit:10;}
</style>
<polyline class="st0" points="-6,394.5 129,400.5 122,435.5 -17,439.5 "/>
<polygon class="st1" points="39,324.5 63,320.5 70,461.5 43,467.5 "/>
<polyline class="st0" points="221,597.5 211,557.5 186,567.5 192,603.5 "/>
<polyline class="st1" points="197,803.5 256,794.5 254,869.5 196,874.5 "/>
<polygon class="st1" points="140,588.5 259,572.5 271,604.5 144,628.5 "/>
<polyline class="st0" points="-11,650.5 101,656.5 97,686.5 -9,688.5 "/>
<polyline class="st0" points="35,737.5 30,625.5 61,619.5 69,736.5 "/>
<polygon class="st0" points="42,666.5 50,665.5 49,675.5 42,676.5 "/>
<polyline class="st0" points="-15,816.5 31,807.5 33,841.5 -20,854.5 "/>
<polygon class="st0" points="252,644.5 303,639.5 306,681.5 252,689.5 "/>
<polygon class="st0" points="230,675.5 277,664.5 284,772.5 236,779.5 "/>
<polyline class="st0" points="528,468.5 425,477.5 421,533.5 531,519.5 "/>
<polyline class="st0" points="435,-8.5 435,39.5 524,38.5 "/>
<polyline class="st0" points="383,81.5 388,47.5 418,45.5 417,80.5 "/>
<polyline class="st0" points="-11,33.5 66,28.5 61,-11.5 "/>
<polyline class="st0" points="66,78.5 69,35.5 98,29.5 98,81.5 "/>
<polygon class="st0" points="45,11.5 86,13.5 87,52.5 47,49.5 "/>
<polygon class="st0" points="458,330.5 534,331.5 530,351.5 457,354.5 "/>
<polygon class="st0" points="248,366.5 391,352.5 401,415.5 256,437.5 "/>
<polygon class="st0" points="378,285.5 467,283.5 473,389.5 371,393.5 "/>
<polyline class="st0" points="173,261.5 275,254.5 271,277.5 177,281.5 "/>
<polygon class="st0" points="162,226.5 203,224.5 198,353.5 164,355.5 "/>
<polygon class="st0" points="217,452.5 117,450.5 115,480.5 214,487.5 "/>
<polygon class="st0" points="20,360.5 88,362.5 92,415.5 21,424.5 "/>
<polygon class="st0" points="184,469.5 242,468.5 254,518.5 178,526.5 "/>
<polygon class="st0" points="197,475.5 206,477.5 206,484.5 196,484.5 "/>
<polygon class="st0" points="183,266.5 193,264.5 193,278.5 186,277.5 "/>
<polygon class="st0" points="381,369.5 391,369.5 390,377.5 381,377.5 "/>
<polygon class="st0" points="295,530.5 330,529.5 332,565.5 295,562.5 "/>
<polygon class="st0" points="286,521.5 302,520.5 304,536.5 287,534.5 "/>
<polygon class="st0" points="200,586.5 209,584.5 209,594.5 199,594.5 "/>
<polyline class="st0" points="-15,530.5 82,514.5 88,556.5 -15,581.5 "/>
<polygon class="st0" points="78,41.5 83,38.5 83,48.5 78,48.5 "/>
<polygon class="st0" points="50,18.5 57,15.5 57,23.5 50,23.5 "/>
<polygon class="st0" points="341,593.5 431,594.5 438,651.5 343,658.5 "/>
<polygon class="st0" points="261.5,676 267.5,675 268.5,684 260.5,683 "/>
<polygon class="st0" points="20,727.5 198,717.5 206,901.5 26,905.5 "/>
<polygon class="st0" points="497,721.5 502,905.5 315,905.5 314,728.5 "/>
<polygon class="st0" points="323,738.5 334,737.5 333,750.5 322,750.5 "/>
<polygon class="st0" points="475,734.5 487,731.5 486,746.5 474,746.5 "/>
<polygon class="st0" points="483,881.5 495,882.5 492,896.5 478,895.5 "/>
<polygon class="st0" points="327,882.5 341,882.5 341,892.5 328,892.5 "/>
<polygon class="st0" points="194,884.5 184,884.5 185,892.5 195,893.5 "/>
<polygon class="st0" points="172,731.5 183,730.5 183,743.5 169,744.5 "/>
<polygon class="st0" points="44,735.5 55,732.5 56,745.5 46,748.5 "/>
<polygon class="st0" points="37,886.5 48,885.5 47,898.5 35,897.5 "/>
<polyline class="st1" points="353,184.5 354,241.5 456,235.5 451,178.5 "/>
<polyline class="st1" points="303,-7.5 312,83.5 211,80.5 197,-15.5 "/>
</svg>
