<svg version="1" xmlns="http://www.w3.org/2000/svg" viewBox="0 0 1188 99"><style>.st10{stroke-width:2;stroke-miterlimit:10}.st5{fill:#93dd49;stroke:#d8ffc8}.st5,.st6,.st7,.st8,.st9{stroke-width:2;stroke-miterlimit:10}.st6{fill:#88c83d;stroke:#d7ffcf}.st7{fill:#7db331;stroke:#d5ffd7}.st8{fill:#719f24;stroke:#d4ffde}.st9{fill:#668a18;stroke:#d3ffe5}.st10{fill:#5b750c;stroke:#d2ffed}</style><circle class="st6" cx="1074" cy="19" r="5"/><circle class="st6" cx="1074" cy="81" r="5"/><circle class="st6" cx="207" cy="50" r="5"/><path class="st10" d="M600 66c7 0 18-8 18-16s-11-17-18-17c-3 0 1 8 1 17s-4 16-1 16zM652 54c2 0 2-2 2-4s0-5-2-5-7 2-7 5 4 4 7 4zM676 77c-4 0-7-2-7-5s8-5 3-5c-4 0-9 3-9 8 0 8 4 14 11 14 12 0 8-12 2-12zm-2-67c-7 0-11 5-11 13 0 5 5 9 9 9 5 0-3-2-3-5s3-5 7-5c6 0 10-12-2-12z"/><path d="M34 91c25 0 62-32 62-41S59 8 34 8c-2 0 34 18 34 41S32 91 34 91z" fill="#9ef255" stroke="#d9ffc0" stroke-width="2" stroke-miterlimit="10"/><path class="st5" d="M1173 17l2-2c1 0 2 1 2 3l-2 2c-1 0-2 0-2-3zm0 64l2-2c1 0 2 1 2 3l-2 2c-1 0-2 0-2-3zm-51 11c8 0 63-29 63-42s-51-43-63-43c-2 0 32 21 32 43s-34 42-32 42zM149 95c18 0 46-14 46-31l-2-13 2-14c0-15-27-33-46-33-2 0 27 14 27 33 0 3-3 7-3 13s4 9 4 14c0 16-30 31-28 31z"/><path class="st6" d="M1020 94c8 0 54-36 54-44s-46-45-54-45c-2 0 24 26 24 45s-26 44-24 44zM267 49c0 6 15 13 15 27 0 8-6 15-14 15-12 0-14-17-14-9 0 5 4 16 16 16 13 0 24-10 24-25 0-14-7-14-7-23s7-10 7-24c0-15-11-25-24-25-12 0-16 12-16 17 0 8 2-9 14-9 8 0 14 7 14 15 0 14-15 19-15 25z"/><path class="st7" d="M302 50c0 3-1 7 1 8s8-1 8-9-6-9-8-8-1 7-1 9zM375 76c0 5-3 10-7 10-12 0-7-21-10-13-2 5-1 23 15 23 13 0 20-9 20-20 0-14-18-12-18 0zM912 95c8 0 52-36 52-46 0-9-44-45-52-45-3 0 21 27 21 46 0 20-23 45-21 45zM393 23c0-11-7-20-20-20-16 0-17 18-15 23 3 8-2-13 10-13 4 0 7 5 7 10 0 12 18 14 18 0zM978 24c2 0 0-3 0-7 0-3-3-5-6-5-2 0-4 2-4 5 0 7 8 7 10 7zm0 50c2 0 0 3 0 7 0 3-3 5-6 5-2 0-4-2-4-5 0-7 8-7 10-7zM378 50c0-7 4-13 0-15-8-2-18 10-18 14s10 17 18 15c4-2 0-7 0-14z"/><path class="st8" d="M402 60c2 0 10-2 10-10s-8-11-10-11 1 8 1 11-4 10-1 10zM471 50c0-4 4-11-1-11s-15 5-15 10 10 11 15 11 1-6 1-10zm5 29c-4 3-7 5-11 2-5-5 4-17-2-11-4 4-7 12 1 22 3 4 14 8 22 0 9-8-3-21-10-13zm10-72c-8-8-18-6-22 0-6 9-5 18-1 22 6 6-3-5 2-11 2-2 7-1 11 2 7 8 19-5 10-13zM795 96c8 0 48-38 48-46S803 3 795 3c-2 0 14 28 14 47s-16 46-14 46zM875 79c-2-2-1-4 0-5 2-2 9 2 5-2-3-3-7-3-11 0-5 4-5 11-1 14 5 4 11-2 7-7zm-7-66c-4 3-4 10 1 14 4 3 8 3 11 0 4-4-3 0-5-2-1-1-2-3 0-5 4-5-2-11-7-7z"/><path class="st9" d="M501 62c3 0 13-4 13-12s-10-13-13-13 1 10 1 12-3 13-1 13zm197 15c7 0 27-17 27-27s-20-28-27-28c-3 0 5 19 5 28s-8 27-5 27zM558 49c0-4 4-7-1-7s-9 4-9 8 4 7 9 7 1-4 1-8zm22-41c-8-3-15 0-17 6-3 11 3 17 5 18 5 2-3-4-1-10 1-2 4-2 7-1 12 4 14-10 6-13zm-6 69c-3 1-6 1-7-1-2-6 6-12 1-10-2 1-8 7-5 18 2 6 9 9 17 6s6-17-6-13zm195-65c-4 2-5 9-2 15 2 5 8 5 11 3 4-3-3 1-5-3-1-3 0-5 3-6 7-2 3-14-7-9zm7 66c-3-1-4-3-3-6 2-4 9 0 5-3-3-2-9-1-11 3-3 6-2 13 2 15 10 5 14-7 7-9zM741 49l2-2c1 0 2 1 2 3l-2 2c-1 0-2 0-2-3z"/></svg>
