<svg version="1" xmlns="http://www.w3.org/2000/svg" viewBox="0 0 1188 99"><style>.st10{stroke-width:2;stroke-miterlimit:10}.st5{fill:#5390e1;stroke:#cdfdfd}.st5,.st6,.st7,.st8,.st9{stroke-width:2;stroke-miterlimit:10}.st6{fill:#4a89c8;stroke:#c9fefb}.st7{fill:#4182b0;stroke:#c4fef9}.st8{fill:#377a98;stroke:#bffef7}.st9{fill:#2e737f;stroke:#bbfff5}.st10{fill:#246b67;stroke:#b6fff3}</style><circle class="st6" cx="1006" cy="19" r="5"/><circle class="st6" cx="1006" cy="81" r="5"/><circle class="st6" cx="289" cy="50" r="5"/><path class="st10" d="M611 22c4 0 7 2 7 5s-8 5-3 5c4 0 9-3 9-8 0-8-4-14-11-14-12 0-8 12-2 12zm2 67c7 0 11-5 11-13 0-5-5-9-9-9-5 0 3 2 3 5s-3 5-7 5c-6 0-10 12 2 12zM636 45c-3 0-3 2-3 5s0 4 3 4 6-2 6-4-4-5-6-5zM688 33c-8 0-19 8-19 17s11 16 19 16c2 0-2-8-2-16s4-17 2-17z"/><path d="M65 8C40 8 3 41 3 49s37 42 62 42c3 0-34-17-34-41S68 8 65 8z" fill="#5d98f9" stroke="#d2fdff" stroke-width="2" stroke-miterlimit="10"/><path class="st5" d="M1104 82l-2 2c-1 0-2-1-2-3l2-2c1 0 2 1 2 3zm0-64l-2 2c-1 0-2-1-2-3l2-2c1 0 2 1 2 3zm51-11c-7 0-63 29-63 42s51 43 63 43c3 0-32-21-32-42s35-43 32-43zM148 4c-18 0-46 14-46 31l2 13-2 14c0 15 27 33 46 33 2 0-27-14-27-33 0-3 3-7 3-13s-4-9-4-14c0-16 30-31 28-31z"/><path class="st6" d="M1059 5c-7 0-54 36-54 45s47 44 54 44c3 0-24-26-24-44s27-45 24-45zM228 50c0-6-15-13-15-27 0-8 6-15 14-15 12 0 14 17 14 9 0-5-4-16-16-16-13 0-24 10-24 25 0 14 7 14 7 23s-7 10-7 24c0 15 11 25 24 25 12 0 16-12 16-17 0-8-2 9-14 9-8 0-14-7-14-15 0-14 15-19 15-25z"/><path class="st7" d="M318 23c0-5 3-10 7-10 12 0 7 21 10 13 2-5 1-23-15-23-13 0-20 9-20 20 0 14 18 12 18 0zM391 49c0-2 1-7-1-8s-8 2-8 9 6 9 8 8 1-6 1-9zM903 75c-2 0 0 3 0 7 0 3 3 5 6 5 2 0 4-2 4-5 0-7-8-7-10-7zm0-50c-2 0 0-3 0-7 0-3 3-5 6-5 2 0 4 2 4 5 0 7-8 7-10 7zM315 49c0 7-4 13 1 15 7 2 17-10 17-14s-10-17-17-15c-5 2-1 7-1 14zM969 4c-8 0-52 36-52 46 0 9 44 45 52 45 3 0-21-27-21-46 0-20 23-45 21-45zM300 76c0 11 7 20 20 20 16 0 17-18 15-23-3-7 2 13-10 13-4 0-7-5-7-10 0-12-18-14-18 0z"/><path class="st8" d="M420 49c0 4-4 11 1 11s15-5 15-10-10-11-15-11-1 6-1 10zm-5-29c4-3 7-5 11-2 5 5-3 17 2 11 4-4 7-12-1-22-3-4-14-8-22 0-9 8 3 21 10 13zm-10 72c8 8 18 6 22 0 6-9 5-18 1-22-6-6 3 5-2 11-2 2-7 1-11-2-7-8-19 5-10 13zM490 39c-3 0-11 2-11 11s8 10 11 10-2-8-2-10 4-11 2-11zM808 20c2 2 1 4 0 5-2 2-9-2-5 2 3 3 7 3 11 0 5-4 5-11 1-14-5-4-11 2-7 7zm7 66c4-3 4-10-1-14-4-3-8-3-11 0-4 4 3 0 5 2 1 1 2 3 0 5-4 5 2 11 7 7zM888 3c-7 0-48 38-48 47s41 46 48 46c3 0-14-28-14-46s17-47 14-47z"/><path class="st9" d="M531 50c0 4-4 7 1 7s9-4 9-8-4-7-9-7-1 4-1 8zm-22 41c8 3 15 0 17-6 3-11-3-17-5-18-5-2 3 4 1 10-1 2-4 2-7 1-12-4-14 10-6 13zm6-69c3-1 6-1 7 1 2 6-6 12-1 10 2-1 8-7 5-18-2-6-9-9-17-6s-6 17 6 13zm201 65c4-2 5-9 2-15-2-4-8-5-11-3-4 3 3-1 5 3 1 3 0 5-3 6-7 2-2 14 7 9zm-7-66c3 1 4 3 3 6-2 4-9 0-5 3 3 2 9 1 11-3 3-6 2-13-2-15-9-5-14 7-7 9zM588 37c-2 0-13 4-13 13s11 12 13 12-1-9-1-12 4-13 1-13zm200-15c-8 0-28 17-28 28s20 27 28 27c2 0-6-19-6-27s8-28 6-28zM744 50l-2 2c-1 0-2-1-2-3l2-2c1 0 2 1 2 3z"/></svg>
