<svg version="1" xmlns="http://www.w3.org/2000/svg" viewBox="0 0 1188 99"><style>.st10{stroke-width:2;stroke-miterlimit:10}.st5{fill:#e252ac;stroke:#edaae0}.st5,.st6,.st7,.st8,.st9{stroke-width:2;stroke-miterlimit:10}.st6{fill:#d7518f;stroke:#f0b0e1}.st7{fill:#cc4f72;stroke:#f4b6e3}.st8{fill:#c04d54;stroke:#f8bde5}.st9{fill:#b54c37;stroke:#fbc3e6}.st10{fill:#aa4a1a;stroke:#ffcae8}</style><circle class="st6" cx="1009" cy="16" r="5"/><circle class="st6" cx="1071" cy="16" r="5"/><circle class="st6" cx="248" cy="91" r="5"/><path class="st10" d="M648 42c0-3-2-3-4-3s-5 0-5 3 2 6 5 6 4-4 4-6zM660 94c0-8-8-19-16-19s-17 11-17 19c0 2 8-2 17-2s16 4 16 2zM671 17c0 4-2 7-5 7s-5-8-5-3c0 4 3 9 8 9 8 0 14-4 14-11 0-12-12-8-12-2zm-67 2c0 7 5 11 13 11 5 0 9-5 9-9 0-5-2 3-5 3s-5-3-5-7c0-6-12-10-12 2z"/><path d="M91 65C91 40 59 3 50 3S8 40 8 65c0 3 18-34 41-34s42 37 42 34z" fill="#ed54c9" stroke="#e9a3de" stroke-width="2" stroke-miterlimit="10"/><path class="st5" d="M1106 15l-2-2c0-1 1-2 3-2l2 2c0 1 0 2-3 2zm64 0l-2-2c0-1 1-2 3-2l2 2c0 1 0 2-3 2zm11 51c0-7-29-63-42-63s-43 51-43 63c0 3 21-32 43-32s42 35 42 32zM194 49c0-18-14-46-31-46l-13 2-14-2c-15 0-33 27-33 46 0 2 14-27 33-27 3 0 7 3 13 3s9-4 14-4c16 0 31 30 31 28z"/><path class="st6" d="M1084 69c0-7-36-54-44-54s-45 47-45 54c0 3 26-24 45-24s44 27 44 24zM247 30c6 0 13-15 27-15 8 0 15 6 15 14 0 12-17 14-9 14 5 0 16-4 16-16 0-13-10-24-25-24-14 0-14 7-23 7s-10-7-24-7c-15 0-25 11-25 24 0 12 12 16 17 16 8 0-9-2-9-14 0-8 7-14 15-14 14 0 19 15 25 15z"/><path class="st7" d="M347 94c3 0 7 1 8-1s-1-8-9-8-9 6-8 8 7 1 9 1zM373 21c5 0 10 3 10 7 0 12-21 7-13 10 5 2 23 1 23-15 0-13-9-20-20-20-14 0-12 18 0 18zM915 12c0-2-3 0-7 0-3 0-5 3-5 6 0 2 2 4 5 4 7 0 7-8 7-10zm50 0c0-2 3 0 7 0 3 0 5 3 5 6 0 2-2 4-5 4-7 0-7-8-7-10zm-618 6c-7 0-13-4-15 1-2 7 10 17 14 17s17-10 15-17c-2-5-7-1-14-1zM986 78c0-8-36-52-46-52-9 0-45 44-45 52 0 3 27-21 46-21 20 0 45 23 45 21zM320 3c-11 0-20 7-20 20 0 16 18 17 23 15 8-3-13 2-13-10 0-4 5-7 10-7 12 0 14-18 0-18z"/><path class="st8" d="M446 24c-4 0-11-4-11 1s5 15 10 15 11-10 11-15-6-1-10-1zm29-5c3 4 5 7 2 11-5 5-16-3-11 2 4 4 12 7 22-1 4-3 8-14 0-22-8-9-21 3-13 10zM403 9c-8 8-6 18 0 22 9 6 18 5 22 1 5-6-5 3-11-2-2-2-1-7 2-11 8-7-5-19-13-10zM456 94c0-3-2-11-10-11s-11 8-11 11 8-2 11-2 10 4 10 2zM871 16c-2 2-4 1-5 0-2-2 2-9-2-5-3 3-3 7 0 11 4 5 11 5 14 1 4-5-2-11-7-7zm-66 7c3 4 10 4 14-1 3-4 3-8 0-11-4-4 0 3-2 5-1 1-3 2-5 0-5-4-11 2-7 7zM888 96c0-7-38-48-46-48s-47 41-47 48c0 3 28-14 47-14s46 17 46 14z"/><path class="st9" d="M544 36c-4 0-7-4-7 1s4 9 8 9 7-4 7-9-4-1-8-1zm-41-22c-3 8 0 15 6 17 11 3 17-3 18-5 2-5-4 3-10 1-2-1-2-4-1-7 4-12-10-14-13-6zm69 6c1 3 1 6-1 7-6 2-12-6-10-1 1 2 7 8 18 5 6-2 9-9 6-17s-17-6-13 6zm133 3c2 4 9 5 15 2 5-2 5-8 3-11-3-4 1 3-3 5-3 1-5 0-6-3-2-7-14-2-9 7zm66-7c-1 3-3 4-6 3-4-2 0-9-3-5-2 3-1 9 3 11 6 3 13 2 15-2 5-9-7-14-9-7zM557 93c0-2-4-13-12-13s-13 11-13 13 10-1 12-1 13 4 13 1zm213 2c0-8-17-28-27-28s-28 20-28 28c0 2 19-6 28-6s27 8 27 6zM742 51l-2-2c0-1 1-2 3-2l2 2c0 1 0 2-3 2z"/></svg>
