<svg version="1" xmlns="http://www.w3.org/2000/svg" viewBox="0 0 1188 99"><style>.st10{stroke-width:2;stroke-miterlimit:10}.st5{fill:#ecc503;stroke:#fff6e4}.st5,.st6,.st7,.st8,.st9{stroke-width:2;stroke-miterlimit:10}.st6{fill:#d9b105;stroke:#fff6d9}.st7{fill:#c79c08;stroke:#fff6cf}.st8{fill:#b4870b;stroke:#fff5c5}.st9{fill:#a1730d;stroke:#fff5ba}.st10{fill:#8e5e10;stroke:#fff4b0}</style><circle class="st6" cx="1009" cy="84" r="5"/><circle class="st6" cx="1071" cy="84" r="5"/><circle class="st6" cx="248" cy="9" r="5"/><path class="st10" d="M616 82c0-4 2-7 5-7s5 8 5 3c0-4-3-9-8-9-8 0-14 4-14 11 0 12 12 8 12 2zm67-2c0-7-5-11-13-11-5 0-9 5-9 9 0 5 2-3 5-3s5 3 5 7c0 6 12 10 12-2zM627 6c0 7 8 18 17 18s16-11 16-18c0-3-8 1-16 1s-17-4-17-1zM639 58c0 2 2 2 5 2s4 0 4-2-2-7-4-7-5 4-5 7z"/><path d="M8 34c0 25 33 62 41 62s42-37 42-62c0-2-17 34-41 34S8 32 8 34z" fill="#ffda00" stroke="#fff7ee" stroke-width="2" stroke-miterlimit="10"/><path class="st5" d="M103 50c0 18 14 46 31 46l13-2 14 2c15 0 33-27 33-46 0-2-14 27-33 27-3 0-7-3-13-3s-9 4-14 4c-16 0-31-30-31-28zM1171 84l2 2c0 1-1 2-3 2l-2-2c0-1 1-2 3-2zm-64 0l2 2c0 1-1 2-3 2l-2-2c0-1 1-2 3-2zm-11-51c0 8 29 63 42 63s43-51 43-63c0-2-21 32-42 32s-43-34-43-32z"/><path class="st6" d="M248 69c-6 0-13 15-27 15-8 0-15-6-15-14 0-12 17-14 9-14-5 0-16 4-16 16 0 13 10 24 25 24 14 0 14-7 23-7s10 7 24 7c15 0 25-11 25-24 0-12-12-16-17-16-8 0 9 2 9 14 0 8-7 14-15 14-14 0-19-15-25-15zM995 30c0 8 36 54 45 54s44-46 44-54c0-2-26 24-44 24s-45-26-45-24z"/><path class="st7" d="M320 78c-5 0-10-3-10-7 0-12 21-7 13-10-5-2-23-1-23 15 0 13 9 20 20 20 14 0 12-18 0-18zM346 5c-2 0-7-1-8 1s2 8 9 8 9-6 8-8-6-1-9-1zM895 21c0 8 36 52 46 52 9 0 45-44 45-52 0-3-27 21-46 21-20 0-45-23-45-21zM373 96c11 0 20-7 20-20 0-16-18-17-23-15-7 3 13-2 13 10 0 4-5 7-10 7-12 0-14 18 0 18zM966 87c0 2 3 0 7 0 3 0 5-3 5-6 0-2-2-4-5-4-7 0-7 8-7 10zm-50 0c0 2-3 0-7 0-3 0-5-3-5-6 0-2 2-4 5-4 7 0 7 8 7 10zm-570-6c7 0 13 4 15 0 2-8-10-18-14-18s-17 10-15 18c2 4 7 0 14 0z"/><path class="st8" d="M435 6c0 2 2 10 11 10s10-8 10-10-8 1-10 1-11-4-11-1zM445 75c4 0 11 4 11-1s-5-15-10-15-11 10-11 15 6 1 10 1zm-29 5c-3-4-5-7-2-11 5-5 16 4 11-2-4-4-12-7-22 1-4 3-8 14 0 22 8 9 21-3 13-10zm72 10c8-8 6-18 0-22-9-6-18-5-22-1-5 6 5-3 11 2 2 2 1 7-2 11-8 7 5 19 13 10zM795 3c0 8 38 48 47 48s46-40 46-48c0-2-28 14-46 14S795 1 795 3zM812 83c2-2 4-1 5 0 2 2-2 9 2 5 3-3 3-7 0-11-4-5-11-5-14-1-4 5 2 11 7 7zm66-7c-3-4-10-4-14 1-3 4-3 8 0 11 4 4 0-3 2-5 1-1 3-2 5 0 5 4 11-2 7-7z"/><path class="st9" d="M532 6c0 3 4 13 13 13s12-10 12-13-9 1-12 1-13-3-13-1zm183-1c0 7 17 27 28 27s27-20 27-27c0-3-19 5-27 5s-28-8-28-5zM545 63c4 0 7 4 7-1s-4-9-8-9-7 4-7 9 4 1 8 1zm41 22c3-8 0-15-6-17-11-3-17 3-18 5-2 5 4-3 10-1 2 1 2 4 1 7-4 12 10 14 13 6zm-69-6c-1-3-1-6 1-7 6-2 12 6 10 1-1-2-7-8-18-5-6 2-9 9-6 17s17 6 13-6zm263-3c-2-4-9-5-15-2-4 2-5 8-3 11 3 4-1-3 3-5 3-1 5 0 6 3 2 7 14 3 9-7zm-66 7c1-3 3-4 6-3 4 2 0 9 3 5 2-3 1-9-3-11-6-3-13-2-15 2-5 10 7 14 9 7zM743 48l2 2c0 1-1 2-3 2l-2-2c0-1 1-2 3-2z"/></svg>
