<svg xmlns="http://www.w3.org/2000/svg" viewBox="0 0 520 24">
<style type="text/css">
	.st0{fill:#FCDB07;}
	.st1{fill:#FFF9F1;}
	.st2{fill:#CF61A5;}
	.st3{fill:#DFA4CA;}
	.st4{fill:#A6D052;}
	.st5{fill:#CBE2A1;}
	.st6{fill:#6A91CC;}
	.st7{fill:#BFE7FB;}
</style>
<rect width="520" height="24"/>
	<polygon class="st0" points="457,24 478,24 484,11 478,0 457,0 433,3 447,5 430,6 456,7 426,8 436,9 422,10 438,11 431,12 444,13
		425,14 438,15 412,16 439,17 432,18 458,20 427,20"/>
	<path class="st1" d="M478,24h11c0,0,2-7,2-12s-2-12-2-12h-11l-15,3h8l-6,1l6,1l-12,1l13,1h-12l7,1l-4,1h9l-9,2l10,1l-13,1l5,1h-6
		l7,2h-4l12,2l-11-1l10,4l-7-1l5,2h-6L478,24z"/>
	<polygon class="st2" points="327,24 348,24 354,11 348,0 327,0 303,3 317,5 300,6 326,7 296,8 306,9 292,10 308,11 301,12 314,13
		295,14 308,15 282,16 309,17 302,18 328,20 297,20"/>
	<path class="st3" d="M348,24h11c0,0,2-7,2-12s-2-12-2-12h-11l-15,3h8l-6,1l6,1l-12,1l13,1h-12l7,1l-4,1h9l-9,2l10,1l-13,1l5,1h-6
		l7,2h-4l12,2l-11-1l10,4l-7-1l5,2h-6L348,24z"/>
	<polygon class="st4" points="197,24 218,24 224,11 218,0 197,0 173,3 187,5 170,6 196,7 166,8 176,9 162,10 178,11 171,12 184,13
		165,14 178,15 152,16 179,17 172,18 198,20 167,20"/>
	<path class="st5" d="M218,24h11c0,0,2-7,2-12s-2-12-2-12h-11l-15,3h8l-6,1l6,1l-12,1l13,1h-12l7,1l-4,1h9l-9,2l10,1l-13,1l5,1h-6
		l7,2h-4l12,2l-11-1l10,4l-7-1l5,2h-6L218,24z"/>
	<polygon class="st6" points="67,24 88,24 94,11 88,0 67,0 43,3 57,5 40,6 66,7 36,8 46,9 32,10 48,11 41,12 54,13 35,14 48,15
		22,16 49,17 42,18 68,20 37,20"/>
	<path class="st7" d="M88,24h11c0,0,2-7,2-12S99,0,99,0H88L73,3h8l-6,1l6,1L69,6l13,1H70l7,1l-4,1h9l-9,2l10,1l-13,1l5,1h-6l7,2h-4
		l12,2l-11-1l10,4l-7-1l5,2h-6L88,24z"/>
</svg>
